<svg width="38" height="38" viewBox="0 0 38 38" fill="none" xmlns="http://www.w3.org/2000/svg">
<g id="noto:fire">
<path id="Vector" d="M10.5569 12.0918C10.3877 13.8968 10.2689 17.0912 11.3347 18.4508C11.3347 18.4508 10.833 14.9418 15.3306 10.5391C17.1416 8.76678 17.5602 6.35616 16.9278 4.54819C16.5686 3.52397 15.9125 2.67787 15.3425 2.08709C15.01 1.73975 15.2653 1.16678 15.7492 1.18756C18.6764 1.31819 23.4205 2.13162 25.4363 7.19037C26.321 9.411 26.3863 11.7058 25.9647 14.0393C25.6975 15.5296 24.7475 18.8427 26.9147 19.2494C28.4614 19.5404 29.2095 18.3113 29.545 17.4266C29.6845 17.0585 30.1685 16.9665 30.4297 17.2604C33.0422 20.2321 33.2649 23.7322 32.7246 26.7455C31.6796 32.5702 25.7806 36.8096 19.9203 36.8096C12.5994 36.8096 6.77174 32.6207 5.26064 25.0385C4.65205 21.9777 4.9608 15.9215 9.68111 11.6465C10.0314 11.3258 10.6044 11.6108 10.5569 12.0918Z" fill="url(#paint0_radial_6_5754)"/>
<path id="Vector_2" d="M22.5951 22.9841C19.8965 19.5107 21.1048 15.5474 21.7668 13.968C21.8559 13.7602 21.6184 13.5643 21.4314 13.692C20.2706 14.4816 17.8926 16.3401 16.7853 18.9555C15.2861 22.4913 15.3929 24.2221 16.2806 26.3359C16.815 27.6095 16.1945 27.8796 15.8828 27.9271C15.58 27.9746 15.3009 27.7727 15.0782 27.562C14.4377 26.947 13.9812 26.1657 13.7601 25.3057C13.7126 25.1216 13.4721 25.0712 13.3623 25.2226C12.5311 26.3715 12.1006 28.2151 12.0798 29.5184C12.0145 33.547 15.3425 36.8126 19.3681 36.8126C24.4417 36.8126 28.1378 31.2016 25.2225 26.511C24.3764 25.1454 23.5807 24.2518 22.5951 22.9841Z" fill="url(#paint1_radial_6_5754)"/>
</g>
<defs>
<radialGradient id="paint0_radial_6_5754" cx="0" cy="0" r="1" gradientUnits="userSpaceOnUse" gradientTransform="translate(18.4703 36.9019) rotate(-179.751) scale(20.9557 34.3841)">
<stop offset="0.314" stop-color="#FF9800"/>
<stop offset="0.662" stop-color="#FF6D00"/>
<stop offset="0.972" stop-color="#F44336"/>
</radialGradient>
<radialGradient id="paint1_radial_6_5754" cx="0" cy="0" r="1" gradientUnits="userSpaceOnUse" gradientTransform="translate(19.6471 16.0487) rotate(90.5787) scale(21.9261 16.5011)">
<stop offset="0.214" stop-color="#FFF176"/>
<stop offset="0.328" stop-color="#FFF27D"/>
<stop offset="0.487" stop-color="#FFF48F"/>
<stop offset="0.672" stop-color="#FFF7AD"/>
<stop offset="0.793" stop-color="#FFF9C4"/>
<stop offset="0.822" stop-color="#FFF8BD" stop-opacity="0.804"/>
<stop offset="0.863" stop-color="#FFF6AB" stop-opacity="0.529"/>
<stop offset="0.91" stop-color="#FFF38D" stop-opacity="0.209"/>
<stop offset="0.941" stop-color="#FFF176" stop-opacity="0"/>
</radialGradient>
</defs>
</svg>
